<svg xmlns="http://www.w3.org/2000/svg" viewBox="236.98 422.82 86.03 96.61"><path fill="#ffe6d5" fill-rule="evenodd" d="M274.16 425.93s-.09 3-.71 4.65c-.43 1.15-2.2 2.38-2.94 3.86-1.59 3.19-3.25 6.9-4.47 8.96-5.34 9-22.33 26.5-22.33 26.5-.88 3.6-1.85 7.17-1.43 11.08.9 5.41 5.17 8.96 10.9 10.54.96 6.84 3.65 17.58 3.22 24.1l52.75.8c-1.71-17.28 5.96-38.14 9.75-53.8 2.34-9.7.78-18.21-2.9-26.13-1.63-3.5-4.23-6.9-6.66-10.3z"/><path fill="none" stroke="#000" d="M274.2 425.82c-.26.85.55.63-.49 4.06-.38 1.26-2.53 3.06-3.07 4.3-.43 1.01-.78 2.29-1.28 3.31-3.85 7.77-10.16 15.6-15.71 22.08-3.7 4.33-7.25 7-9.69 10.6-7.42 14.18 6.73 25.9 20.08 20.4"/><path fill="none" stroke="#000" d="M269.78 454.01c1.41 3.28 2.24 4.13 3.96 8.88 3.03 8.38 2.36 23.15 2.3 32.06-.02 4.3-4.54 17.95-4.54 17.95m31.91-60.51c.03 11.06-2.04 31.3-4.17 46.5-.6 4.19-3.2 11.41-6.16 16.06m16.14-88.96c.4.45 3.2 3.6 3.58 4.09 6.44 8.38 8 21.56 6.53 32.31-5.18 19.37-10.5 28.02-10.4 48 0 .67.12 5.05-.03 5.74m-52.74-.41c.47-4.92-.22-13.62-1.27-18.22-.45-1.97-.8-3.15-1.38-5.95"/><path fill="#d38d5f" fill-rule="evenodd" stroke="#000" d="M243.56 470.93c-1.9 3.97-2.94 1.22-3.5 3.34-.54 2.03 1.76 1.73 1.87 5.02 2.52.33 5.57-5.63 1.63-8.36z"/><path fill="none" stroke="#000" d="M274.81 466.82c.03-.5-1.57-16.19-1.57-16.19m6.75-19.67s-1.96 2.03-3.04 2.56c-1.07.52-4.4.85-4.4.85"/></svg>